<svg clip-rule="evenodd" fill-rule="evenodd" stroke-linejoin="round" stroke-miterlimit="2" viewBox="0 0 500 500" xmlns="http://www.w3.org/2000/svg" xmlns:xlink="http://www.w3.org/1999/xlink"><linearGradient id="b" gradientTransform="matrix(0 500 -250 0 250 0)" gradientUnits="userSpaceOnUse" x1="0" x2="1" y1="0" y2="0"><stop offset="0" stop-color="#ffe500"/><stop offset="1" stop-color="#f12b31"/></linearGradient><linearGradient id="a"><stop offset="0" stop-color="#c300ff"/><stop offset="1" stop-color="#00059d"/></linearGradient><linearGradient id="c" gradientTransform="matrix(0 260.673 -158.367 0 110.519 50)" gradientUnits="userSpaceOnUse" x1="0" x2="1" xlink:href="#a" y1="0" y2="0"/><linearGradient id="d" gradientTransform="matrix(0 122.746 -66.1761 0 250 50)" gradientUnits="userSpaceOnUse" x1="0" x2="1" xlink:href="#a" y1="0" y2="0"/><linearGradient id="e" gradientTransform="matrix(0 122.746 -66.1761 0 110.519 327.254)" gradientUnits="userSpaceOnUse" x1="0" x2="1" xlink:href="#a" y1="0" y2="0"/><linearGradient id="f" gradientTransform="matrix(0 163.704 -99.4553 0 250 189.393)" gradientUnits="userSpaceOnUse" x1="0" x2="1" xlink:href="#a" y1="0" y2="0"/><linearGradient id="g" gradientTransform="matrix(0 80.539 -40.3627 0 250 369.462)" gradientUnits="userSpaceOnUse" x1="0" x2="1" xlink:href="#a" y1="0" y2="0"/><linearGradient id="h" gradientTransform="scale(90.6987 161.078) rotate(90 1.25 3.044)" gradientUnits="userSpaceOnUse" x1="0" x2="1" xlink:href="#a" y1="0" y2="0"/><linearGradient id="i" gradientTransform="matrix(0 220.264 -133.817 0 389.481 50)" gradientUnits="userSpaceOnUse" x1="0" x2="1" xlink:href="#a" y1="0" y2="0"/><path d="M0 0h500v500H0z" fill="url(#b)"/><path d="M171.038 59.96c0-5.498-2.712-9.96-6.052-9.96H56.052C52.712 50 50 54.462 50 59.96v240.751c0 5.498 2.712 9.962 6.052 9.962h108.934c3.34 0 6.052-4.464 6.052-9.962z" fill="url(#c)"/><path d="M310.52 56.137c0-3.388-1.483-6.137-3.31-6.137H192.79c-1.827 0-3.309 2.749-3.309 6.137v110.472c0 3.386 1.482 6.137 3.309 6.137h114.42c1.827 0 3.31-2.751 3.31-6.137z" fill="url(#d)"/><path d="M171.038 333.391c0-3.386-1.483-6.137-3.309-6.137H53.309c-1.826 0-3.309 2.751-3.309 6.137v110.472c0 3.388 1.483 6.137 3.309 6.137h114.42c1.826 0 3.309-2.749 3.309-6.137z" fill="url(#e)"/><path d="M310.52 197.578c0-4.518-2.229-8.185-4.973-8.185H194.454c-2.745 0-4.973 3.667-4.973 8.185v147.333c0 4.517 2.228 8.185 4.973 8.185h111.093c2.744 0 4.973-3.668 4.973-8.185z" fill="url(#f)"/><path d="M310.52 373.488c0-2.222-.905-4.026-2.019-4.026H191.499c-1.114 0-2.018 1.804-2.018 4.026v72.485c0 2.224.904 4.027 2.018 4.027h117.002c1.114 0 2.019-1.803 2.019-4.027z" fill="url(#g)"/><path d="M450 296.977c0-4.446-2.032-8.054-4.535-8.054H333.498c-2.503 0-4.536 3.608-4.536 8.054v144.969c0 4.446 2.033 8.054 4.536 8.054h111.967c2.503 0 4.535-3.608 4.535-8.054z" fill="url(#h)"/><path d="M450 59.96c0-5.498-2.712-9.96-6.052-9.96H335.014c-3.34 0-6.052 4.462-6.052 9.96v200.342c0 5.498 2.712 9.962 6.052 9.962h108.934c3.34 0 6.052-4.464 6.052-9.962z" fill="url(#i)"/></svg>
